<svg width="12" height="9" xmlns="http://www.w3.org/2000/svg" xmlns:xlink="http://www.w3.org/1999/xlink" overflow="hidden"><defs><clipPath id="clip0"><path d="M563 249 575 249 575 258 563 258Z" fill-rule="evenodd" clip-rule="evenodd"/></clipPath><radialGradient cx="47625" cy="19050" r="51293.7" gradientUnits="userSpaceOnUse" spreadMethod="pad" id="fill1" gradientTransform="matrix(0.000104987 0 0 0.000104987 564.5 253.5)"><stop offset="0" stop-color="#B4C7E7"/><stop offset="0.46" stop-color="#4D79C7"/><stop offset="1" stop-color="#264478"/></radialGradient><radialGradient cx="47625" cy="19050" r="51293.7" gradientUnits="userSpaceOnUse" spreadMethod="pad" id="fill2" gradientTransform="matrix(0.000104987 0 0 0.000104987 564.5 251.5)"><stop offset="0" stop-color="#B4C7E7"/><stop offset="0.46" stop-color="#4D79C7"/><stop offset="1" stop-color="#264478"/></radialGradient></defs><g clip-path="url(#clip0)" transform="translate(-563 -249)"><path d="M564.5 255.5C564.5 254.395 566.739 253.5 569.5 253.5 572.261 253.5 574.5 254.395 574.5 255.5 574.5 256.605 572.261 257.5 569.5 257.5 566.739 257.5 564.5 256.605 564.5 255.5Z" stroke="#2F528F" stroke-width="1.33333" stroke-miterlimit="8" fill="url(#fill1)" fill-rule="evenodd"/><path d="M564.5 253.5C564.5 252.395 566.739 251.5 569.5 251.5 572.261 251.5 574.5 252.395 574.5 253.5 574.5 254.605 572.261 255.5 569.5 255.5 566.739 255.5 564.5 254.605 564.5 253.5Z" stroke="#2F528F" stroke-width="1.33333" stroke-miterlimit="8" fill="url(#fill2)" fill-rule="evenodd"/></g></svg>