<svg width="7" height="6" xmlns="http://www.w3.org/2000/svg" xmlns:xlink="http://www.w3.org/1999/xlink" overflow="hidden"><defs><clipPath id="clip0"><path d="M563 249 570 249 570 255 563 255Z" fill-rule="evenodd" clip-rule="evenodd"/></clipPath><radialGradient cx="23812.5" cy="9525" r="25646.8" gradientUnits="userSpaceOnUse" spreadMethod="pad" id="fill1" gradientTransform="matrix(0.000104987 0 0 0.000104987 564.5 252.5)"><stop offset="0" stop-color="#B4C7E7"/><stop offset="0.46" stop-color="#4D79C7"/><stop offset="1" stop-color="#264478"/></radialGradient><radialGradient cx="23812.5" cy="9525" r="25646.8" gradientUnits="userSpaceOnUse" spreadMethod="pad" id="fill2" gradientTransform="matrix(0.000104987 0 0 0.000104987 564.5 251.5)"><stop offset="0" stop-color="#B4C7E7"/><stop offset="0.46" stop-color="#4D79C7"/><stop offset="1" stop-color="#264478"/></radialGradient></defs><g clip-path="url(#clip0)" transform="translate(-563 -249)"><path d="M564.5 253.5C564.5 252.948 565.619 252.5 567 252.5 568.381 252.5 569.5 252.948 569.5 253.5 569.5 254.052 568.381 254.5 567 254.5 565.619 254.5 564.5 254.052 564.5 253.5Z" stroke="#2F528F" stroke-width="1.33333" stroke-miterlimit="8" fill="url(#fill1)" fill-rule="evenodd"/><path d="M564.5 252.5C564.5 251.948 565.619 251.5 567 251.5 568.381 251.5 569.5 251.948 569.5 252.5 569.5 253.052 568.381 253.5 567 253.5 565.619 253.5 564.5 253.052 564.5 252.5Z" stroke="#2F528F" stroke-width="1.33333" stroke-miterlimit="8" fill="url(#fill2)" fill-rule="evenodd"/></g></svg>